<svg aria-hidden="true" style="position: absolute; width: 0; height: 0; overflow: hidden;" version="1.1" xmlns="http://www.w3.org/2000/svg" xmlns:xlink="http://www.w3.org/1999/xlink">
<defs>
<symbol id="icon-dontworry-get" viewBox="0 0 32 32">
<path stroke-linejoin="miter" stroke-linecap="butt" stroke-miterlimit="4" stroke-width="0.8101" d="M21.463 0.39h-10.927c-5.604 0-10.146 4.543-10.146 10.147v10.927c0 5.604 4.543 10.146 10.147 10.146h10.927c5.604 0 10.146-4.543 10.146-10.147v-10.926c0-5.604-4.543-10.146-10.147-10.146z"></path>
<path stroke-linejoin="round" stroke-linecap="round" stroke-miterlimit="4" stroke-width="0.8101" d="M8.973 14.46v-1.932c0-2.177 1.631-3.942 3.643-3.942h6.671c2.012 0 3.642 1.765 3.642 3.943v1.932M8.973 16.138v3.611c0 2.177 1.631 3.942 3.643 3.942h6.671c2.012 0 3.642-1.765 3.642-3.942v-3.611"></path>
<path stroke-linejoin="round" stroke-linecap="round" stroke-miterlimit="4" stroke-width="0.8101" d="M10.738 12.55l-1.765 1.911-1.765-1.911M21.165 18.048l1.764-1.909 1.765 1.909"></path>
</symbol>
<symbol id="icon-headerlogo" viewBox="0 0 70 32">
<path d="M25.845 30.311c-1.526 1.057-3.418 1.689-5.456 1.689-0.010 0-0.021-0-0.031-0h0.002c-0.015 0-0.032 0-0.049 0-2.565 0-4.901-0.977-6.657-2.58l0.008 0.007c-0.142-0.128 0-0.298 0.148-0.202 1.906 1.125 4.201 1.79 6.65 1.79 1.867 0 3.643-0.386 5.254-1.083l-0.086 0.033c0.255-0.107 0.461 0.165 0.217 0.346z"></path>
<path d="M26.464 29.603c-0.191-0.246-1.255-0.118-1.737-0.059-0.142 0-0.163-0.106-0.037-0.202 0.852-0.597 2.245-0.426 2.404-0.224s-0.042 1.599-0.836 2.275c-0.122 0.101-0.239 0.048-0.186-0.085 0.18-0.453 0.577-1.46 0.392-1.705zM24.765 25.106v-0.586c-0-0.002-0-0.003-0-0.005 0-0.079 0.064-0.144 0.144-0.144 0.002 0 0.003 0 0.005 0h2.583c0.002-0 0.004-0 0.005-0 0.060 0 0.112 0.038 0.133 0.091l0 0.001c0.006 0.016 0.010 0.034 0.010 0.053 0 0.002-0 0.003-0 0.005v-0 0.501c0 0.085-0.069 0.192-0.196 0.368l-1.345 1.934c0.049-0.003 0.107-0.005 0.165-0.005 0.482 0 0.935 0.12 1.333 0.332l-0.015-0.007c0.080 0.045 0.134 0.127 0.138 0.223l0 0v0.624c0 0.085-0.095 0.186-0.191 0.133-0.398-0.211-0.87-0.335-1.371-0.335s-0.973 0.124-1.388 0.343l0.016-0.008c-0.090 0.048-0.185-0.048-0.185-0.133v-0.576c-0.001-0.013-0.001-0.029-0.001-0.045 0-0.131 0.036-0.253 0.099-0.357l-0.002 0.003 1.567-2.265h-1.355c-0.002 0-0.004 0-0.006 0-0.059 0-0.109-0.036-0.131-0.087l-0-0.001c-0.007-0.016-0.011-0.035-0.011-0.055 0-0 0-0.001 0-0.001v0zM29.9 25.132c-0.582 0-0.619 0.8-0.619 1.295s0 1.561 0.614 1.561 0.641-0.857 0.641-1.379c0.012-0.359-0.029-0.718-0.121-1.066-0.045-0.228-0.243-0.397-0.481-0.397-0.017 0-0.034 0.001-0.050 0.003l0.002-0 0.015-0.016zM29.9 24.296c1.17 0 1.806 1.017 1.806 2.301s-0.699 2.233-1.806 2.233c-1.106 0-1.779-1.012-1.779-2.275s0.635-2.26 1.779-2.26zM23.489 28.734c-0.026 0.017-0.058 0.027-0.093 0.027s-0.066-0.010-0.093-0.027l0.001 0c-0.179-0.151-0.33-0.327-0.45-0.524l-0.005-0.009c-0.287 0.357-0.724 0.584-1.213 0.584-0.032 0-0.063-0.001-0.094-0.003l0.004 0c-0.019 0.001-0.041 0.002-0.064 0.002-0.319 0-0.607-0.134-0.811-0.349l-0-0c-0.193-0.203-0.311-0.477-0.311-0.78 0-0.040 0.002-0.080 0.006-0.12l-0 0.005c-0-0.012-0.001-0.027-0.001-0.041 0-0.275 0.082-0.532 0.222-0.746l-0.003 0.005c0.151-0.23 0.363-0.409 0.615-0.514l0.009-0.003c0.441-0.152 0.949-0.25 1.478-0.271l0.011-0c0.005-0.044 0.008-0.096 0.008-0.148 0-0.193-0.038-0.377-0.106-0.544l0.003 0.010c-0.105-0.127-0.262-0.208-0.439-0.208-0.002 0-0.004 0-0.006 0h0c-0.014-0.001-0.029-0.002-0.045-0.002-0.287 0-0.527 0.199-0.59 0.466l-0.001 0.004c0 0.091-0.079 0.16-0.148 0.155l-0.757-0.059c-0.059-0.010-0.105-0.055-0.116-0.112l-0-0.001c-0.002-0.009-0.003-0.019-0.003-0.029s0.001-0.020 0.003-0.030l-0 0.001c0.174-0.933 1.016-1.215 1.768-1.215 0.431-0.016 0.854 0.124 1.191 0.394 0.381 0.362 0.344 0.848 0.344 1.369v1.241c0.003 0.275 0.111 0.539 0.302 0.735 0.026 0.027 0.042 0.064 0.042 0.104s-0.016 0.077-0.042 0.104l0-0-0.609 0.533-0.005-0.005zM22.695 26.794c0.005 0.047 0.008 0.101 0.008 0.155 0 0.251-0.058 0.489-0.161 0.701l0.004-0.010c-0.1 0.202-0.296 0.342-0.527 0.362l-0.002 0c-0.307 0-0.482-0.234-0.482-0.581 0-0.676 0.603-0.799 1.175-0.799v0.17h-0.016zM13.132 28.735c-0.026 0.017-0.058 0.027-0.093 0.027s-0.066-0.010-0.093-0.027l0.001 0c-0.179-0.151-0.33-0.327-0.451-0.524l-0.005-0.009c-0.294 0.357-0.735 0.583-1.23 0.583-0.025 0-0.051-0.001-0.076-0.002l0.004 0c-0.014 0.001-0.030 0.001-0.046 0.001-0.318 0-0.605-0.133-0.809-0.347l-0-0c-0.194-0.203-0.313-0.478-0.313-0.782 0-0.033 0.001-0.065 0.004-0.097l-0 0.004c-0-0.013-0.001-0.029-0.001-0.045 0-0.275 0.081-0.53 0.221-0.744l-0.003 0.005c0.15-0.233 0.369-0.413 0.624-0.516 0.44-0.152 0.949-0.25 1.478-0.272l0.011-0c0.005-0.043 0.007-0.093 0.007-0.143 0-0.194-0.040-0.38-0.111-0.548l0.003 0.009c-0.098-0.127-0.25-0.208-0.421-0.208-0.006 0-0.013 0-0.019 0l0.001-0c-0.015-0.001-0.032-0.002-0.049-0.002-0.286 0-0.525 0.2-0.586 0.467l-0.001 0.004c0 0.090-0.080 0.159-0.148 0.154l-0.758-0.080c-0.059-0.010-0.104-0.055-0.116-0.112l-0-0.001c-0.002-0.009-0.003-0.019-0.003-0.029s0.001-0.020 0.003-0.030l-0 0.001c0.175-0.933 1.017-1.215 1.768-1.215 0.020-0.001 0.044-0.001 0.069-0.001 0.425 0 0.815 0.149 1.121 0.398l-0.003-0.003c0.387 0.362 0.349 0.848 0.349 1.369v1.241c-0.002 0.27 0.094 0.532 0.27 0.735 0.027 0.026 0.044 0.063 0.044 0.104 0 0.020-0.004 0.040-0.012 0.057l0-0.001c-0.008 0.019-0.019 0.034-0.033 0.048l-0 0-0.609 0.533 0.011-0.005zM12.337 26.795c0.005 0.047 0.008 0.101 0.008 0.157 0 0.251-0.058 0.488-0.16 0.7l0.004-0.010c-0.101 0.201-0.296 0.341-0.526 0.362l-0.003 0c-0.302 0-0.477-0.234-0.477-0.581 0-0.676 0.603-0.799 1.175-0.799v0.17h-0.022zM15.44 26.438c0-0.474 0-1.123 0.529-1.123s0.482 0.665 0.482 1.123v2.164c0 0 0 0 0 0 0 0.077 0.061 0.14 0.137 0.144h0.789c0.002 0 0.004 0 0.006 0 0.060 0 0.111-0.035 0.134-0.086l0-0.001c0.008-0.017 0.012-0.036 0.013-0.057v-2.164c-0.003-0.046-0.005-0.1-0.005-0.154 0-0.224 0.029-0.44 0.083-0.647l-0.004 0.018c0.077-0.191 0.257-0.326 0.47-0.336l0.001-0c0.018-0.003 0.038-0.004 0.059-0.004 0.208 0 0.38 0.154 0.407 0.354l0 0.002c0.018 0.255 0.018 0.511 0 0.767v2.163c0.003 0.078 0.065 0.14 0.143 0.144h0.789c0.002 0 0.004 0 0.006 0 0.059 0 0.111-0.035 0.134-0.086l0-0.001c0.008-0.017 0.012-0.036 0.013-0.057v-2.579c0.015-0.097 0.024-0.208 0.024-0.322 0-0.349-0.083-0.678-0.231-0.969l0.006 0.012c-0.206-0.273-0.53-0.447-0.895-0.447-0.006 0-0.011 0-0.017 0h0.001c-0.010-0-0.021-0-0.032-0-0.239 0-0.46 0.074-0.642 0.201l0.004-0.002c-0.197 0.136-0.346 0.331-0.425 0.558-0.069-0.225-0.204-0.413-0.383-0.547l-0.003-0.002c-0.173-0.13-0.392-0.208-0.628-0.208-0.003 0-0.006 0-0.009 0h0c-0.235-0.010-0.466 0.059-0.658 0.196s-0.333 0.334-0.4 0.56v-0.533c-0.004-0.079-0.068-0.143-0.148-0.144h-0.683c-0.002-0-0.003-0-0.005-0-0.079 0-0.143 0.064-0.143 0.143 0 0 0 0.001 0 0.001v-0 4.065c-0 0.002-0 0.004-0 0.006 0 0.060 0.037 0.112 0.089 0.134l0.001 0c0.015 0.006 0.033 0.010 0.052 0.010 0.002 0 0.004-0 0.006-0h0.809c0 0 0.001 0 0.001 0 0.061 0 0.112-0.038 0.132-0.092l0-0.001c0.006-0.015 0.009-0.033 0.009-0.051 0-0.002-0-0.004-0-0.006v0-2.131l-0.021-0.016zM33.374 28.596c0 0.001 0 0.003 0 0.005 0 0.080-0.065 0.144-0.144 0.144-0.001 0-0.003-0-0.004-0h-0.788c-0 0-0 0-0.001 0-0.081 0-0.148-0.066-0.148-0.148 0-0 0-0.001 0-0.001v0-4.065c0.003-0.080 0.068-0.143 0.148-0.144h0.731c0.003-0 0.006-0 0.009-0 0.068 0 0.124 0.047 0.139 0.11l0 0.001v0.624c0.055-0.239 0.19-0.452 0.383-0.603s0.431-0.229 0.676-0.223c0.010-0 0.022-0.001 0.034-0.001 0.371 0 0.697 0.192 0.884 0.481l0.002 0.004c0.137 0.306 0.217 0.664 0.217 1.040 0 0.080-0.004 0.16-0.011 0.238l0.001-0.010v2.568c-0.008 0.072-0.069 0.128-0.143 0.128-0.002 0-0.004-0-0.006-0h-0.763c-0.072-0.002-0.13-0.057-0.137-0.127l-0-0.001v-2.467c0-0.826-0.318-0.847-0.498-0.847-0.205 0.012-0.377 0.139-0.454 0.317l-0.001 0.003c-0.082 0.202-0.13 0.436-0.13 0.681 0 0.034 0.001 0.068 0.003 0.101l-0-0.005v2.196zM2.61 28.734l-0.063-0.416c-0.186 0.163-0.4 0.291-0.63 0.379-0.202 0.085-0.436 0.136-0.682 0.138h-0.001c-0.020 0.001-0.043 0.002-0.066 0.002-0.322 0-0.616-0.124-0.835-0.328l0.001 0.001c-0.21-0.204-0.341-0.489-0.341-0.805 0-0.021 0.001-0.041 0.002-0.062l-0 0.003c-0.001-0.013-0.001-0.027-0.001-0.042 0-0.356 0.16-0.675 0.412-0.888l0.002-0.001c0.28-0.217 0.637-0.348 1.025-0.348 0.029 0 0.058 0.001 0.086 0.002l-0.004-0c0.358 0.006 0.702 0.056 1.029 0.145l-0.029-0.007v-0.533c0.003-0.025 0.005-0.055 0.005-0.084 0-0.201-0.076-0.385-0.201-0.524l0.001 0.001c-0.157-0.113-0.354-0.181-0.566-0.181-0.034 0-0.067 0.002-0.1 0.005l0.004-0c-0.501 0.007-0.979 0.098-1.423 0.26l0.030-0.010v-0.554c0.202-0.105 0.436-0.187 0.683-0.232l0.015-0.002c0.245-0.054 0.527-0.085 0.817-0.085 0.005 0 0.011 0 0.016 0h-0.001c0.394-0.033 0.787 0.078 1.106 0.314 0.224 0.22 0.364 0.526 0.364 0.865 0 0.033-0.001 0.066-0.004 0.099l0-0.004v2.893h-0.651zM1.419 28.238c0.418-0.017 0.798-0.169 1.099-0.413l-0.003 0.003v-0.81c-0.252-0.067-0.542-0.106-0.841-0.106h-0c-0.593 0-0.895 0.234-0.895 0.692-0.001 0.012-0.001 0.025-0.001 0.039 0 0.167 0.065 0.318 0.171 0.431l-0-0c0.115 0.103 0.267 0.167 0.435 0.167 0.015 0 0.029-0 0.043-0.001l-0.002 0h-0.005zM7.153 28.734v-2.707c0.019-0.222-0.043-0.443-0.174-0.623-0.12-0.123-0.288-0.2-0.473-0.2-0.020 0-0.039 0.001-0.058 0.003l0.003-0c-0.441 0.007-0.869 0.148-1.229 0.405v3.122h-0.789v-4.049h0.657l0.079 0.448c0.432-0.346 0.985-0.558 1.587-0.565h0.002c0.026-0.002 0.056-0.003 0.086-0.003 0.307 0 0.586 0.119 0.794 0.313l-0.001-0.001c0.19 0.212 0.306 0.494 0.306 0.803 0 0.036-0.002 0.072-0.005 0.108l0-0.005v2.973l-0.784-0.022zM40.633 28.579c-0.296 0.151-0.646 0.24-1.016 0.24-0.015 0-0.030-0-0.045-0l0.002 0c-0.037 0.003-0.080 0.004-0.123 0.004-0.51 0-0.971-0.205-1.307-0.537l0 0c-0.315-0.433-0.504-0.976-0.504-1.563s0.189-1.13 0.51-1.571l-0.005 0.008c0.339-0.332 0.805-0.537 1.318-0.537 0.045 0 0.090 0.002 0.134 0.005l-0.006-0c0.004-0 0.009-0 0.013-0 0.359 0 0.698 0.082 1.001 0.229l-0.014-0.006v0.565c-0.26-0.095-0.561-0.155-0.874-0.165l-0.005-0c-0.034-0.003-0.074-0.005-0.114-0.005-0.329 0-0.627 0.132-0.844 0.346l0-0c-0.186 0.259-0.297 0.581-0.297 0.93 0 0.048 0.002 0.095 0.006 0.141l-0-0.006v0.101c-0.031 0.379 0.074 0.758 0.297 1.066 0.214 0.213 0.508 0.345 0.834 0.345 0.036 0 0.072-0.002 0.108-0.005l-0.005 0c0.337-0.006 0.658-0.064 0.959-0.167l-0.022 0.007v0.575zM43.101 28.851c-0.031 0.002-0.068 0.003-0.104 0.003-0.516 0-0.981-0.218-1.309-0.566l-0.001-0.001c-0.321-0.436-0.514-0.984-0.514-1.577s0.193-1.141 0.52-1.585l-0.005 0.007c0.367-0.349 0.864-0.564 1.411-0.564s1.045 0.215 1.412 0.565l-0.001-0.001c0.321 0.436 0.514 0.984 0.514 1.577s-0.193 1.141-0.52 1.585l0.005-0.007c-0.328 0.349-0.793 0.567-1.309 0.567-0.035 0-0.070-0.001-0.104-0.003l0.005 0zM43.101 28.212c0.741 0 1.117-0.501 1.117-1.508s-0.376-1.497-1.117-1.497c-0.742 0-1.117 0.496-1.117 1.497s0.37 1.509 1.117 1.509zM51.123 28.734v-2.749c0.002-0.022 0.003-0.047 0.003-0.073 0-0.191-0.056-0.368-0.153-0.517l0.002 0.004c-0.105-0.119-0.259-0.194-0.429-0.194-0.017 0-0.033 0.001-0.050 0.002l0.002-0c-0.434 0.008-0.836 0.141-1.173 0.362l0.008-0.005c0.003 0.041 0.003 0.082 0 0.122v3.049h-0.784v-2.749c0.001-0.019 0.002-0.042 0.002-0.064 0-0.193-0.056-0.374-0.153-0.525l0.002 0.004c-0.105-0.119-0.258-0.194-0.429-0.194-0.017 0-0.033 0.001-0.050 0.002l0.002-0c-0.432 0.003-0.833 0.134-1.167 0.356l0.008-0.005v3.197h-0.784v-4.049h0.656l0.080 0.41c0.409-0.312 0.92-0.509 1.477-0.533l0.005-0c0.035-0.004 0.075-0.007 0.116-0.007 0.389 0 0.725 0.224 0.887 0.55l0.003 0.006c0.433-0.343 0.986-0.554 1.587-0.564l0.002-0c0.023-0.002 0.050-0.003 0.077-0.003 0.298 0 0.568 0.119 0.765 0.312l-0-0c0.204 0.255 0.302 0.58 0.27 0.906v2.973l-0.784-0.022zM53.066 30.375v-5.691h0.657l0.074 0.416c0.349-0.329 0.821-0.532 1.34-0.533h0c0.025-0.002 0.054-0.002 0.083-0.002 0.454 0 0.86 0.207 1.127 0.533l0.002 0.003c0.317 0.444 0.474 0.983 0.445 1.529 0.003 0.044 0.004 0.095 0.004 0.146 0 0.546-0.178 1.051-0.48 1.459l0.005-0.007c-0.279 0.361-0.712 0.592-1.199 0.592-0.016 0-0.032-0-0.048-0.001l0.002 0c-0.010 0-0.022 0-0.035 0-0.462 0-0.881-0.178-1.194-0.47l0.001 0.001v2.024h-0.784zM54.914 25.207c-0.401 0.005-0.769 0.142-1.063 0.371l0.004-0.003v2.222c0.301 0.242 0.673 0.376 1.059 0.383 0.731 0 1.091-0.495 1.091-1.481 0.004-0.045 0.006-0.097 0.006-0.15 0-0.36-0.101-0.696-0.275-0.983l0.005 0.008c-0.172-0.226-0.441-0.371-0.745-0.371-0.029 0-0.057 0.001-0.085 0.004l0.004-0zM60.124 28.733l-0.063-0.415c-0.186 0.163-0.4 0.291-0.63 0.379-0.203 0.085-0.44 0.135-0.687 0.138h-0.001c-0.019 0.001-0.041 0.002-0.063 0.002-0.323 0-0.618-0.124-0.838-0.328l0.001 0.001c-0.207-0.206-0.335-0.491-0.335-0.806 0-0.020 0.001-0.041 0.002-0.061l-0 0.003c-0.001-0.014-0.001-0.031-0.001-0.047 0-0.354 0.158-0.67 0.407-0.883l0.002-0.001c0.281-0.217 0.639-0.348 1.027-0.348 0.030 0 0.060 0.001 0.090 0.002l-0.004-0c0.358 0.005 0.702 0.056 1.029 0.145l-0.029-0.007v-0.533c0.002-0.023 0.004-0.050 0.004-0.077 0-0.204-0.076-0.39-0.2-0.531l0.001 0.001c-0.157-0.113-0.354-0.181-0.566-0.181-0.034 0-0.067 0.002-0.1 0.005l0.004-0c-0.503 0.006-0.982 0.098-1.427 0.26l0.030-0.010v-0.554c0.202-0.105 0.436-0.187 0.683-0.232l0.015-0.002c0.247-0.054 0.53-0.085 0.82-0.085 0.004 0 0.007 0 0.011 0h-0.001c0.040-0.003 0.086-0.005 0.133-0.005 0.368 0 0.709 0.12 0.984 0.323l-0.005-0.003c0.222 0.219 0.359 0.524 0.359 0.86 0 0.035-0.002 0.070-0.004 0.104l0-0.004v2.893h-0.646zM58.933 28.238c0.418-0.017 0.798-0.169 1.099-0.413l-0.004 0.003v-0.81c-0.252-0.067-0.542-0.106-0.841-0.106h-0c-0.598 0-0.895 0.234-0.895 0.692-0.001 0.013-0.002 0.029-0.002 0.045 0 0.164 0.063 0.313 0.166 0.425l-0-0c0.131 0.116 0.302 0.175 0.477 0.165zM64.657 28.734v-2.707c0.002-0.022 0.003-0.047 0.003-0.073 0-0.206-0.065-0.397-0.175-0.553l0.002 0.003c-0.12-0.123-0.288-0.2-0.473-0.2-0.020 0-0.039 0.001-0.058 0.003l0.002-0c-0.462 0.007-0.888 0.158-1.235 0.409l0.006-0.004v3.122h-0.784v-4.049h0.657l0.079 0.448c0.432-0.346 0.985-0.558 1.587-0.565h0.001c0.026-0.002 0.057-0.003 0.087-0.003 0.308 0 0.588 0.119 0.798 0.313l-0.001-0.001c0.211 0.244 0.317 0.562 0.296 0.884v2.974h-0.794zM69.857 24.685l-1.832 4.758c-0.097 0.3-0.268 0.573-0.498 0.788-0.209 0.166-0.47 0.251-0.736 0.24-0.004 0-0.009 0-0.013 0-0.216 0-0.422-0.041-0.612-0.115l0.011 0.004v-0.566c0.147 0.037 0.298 0.055 0.45 0.054 0.012 0.001 0.025 0.001 0.039 0.001 0.162 0 0.311-0.057 0.428-0.152l-0.001 0.001c0.143-0.15 0.247-0.333 0.302-0.532l0.154-0.405-1.621-4.087h0.842l1.159 3.314 1.117-3.314h0.81v0.010zM15.737 8.322h-13.454v-0.075c0.048-0.476 0.158-0.944 0.328-1.39 0.588-1.695 1.72-3.075 3.182-3.966l0.033-0.019c0.899-0.521 1.979-0.829 3.13-0.829 0.076 0 0.152 0.001 0.227 0.004l-0.011-0c0.88-0.005 1.752 0.163 2.568 0.496 0.81 0.329 1.505 0.783 2.094 1.345l-0.003-0.002c0.571 0.548 1.039 1.198 1.375 1.921l0.016 0.039c0.334 0.699 0.53 1.519 0.53 2.385 0 0.004 0 0.009 0 0.013v-0.001l-0.016 0.080zM9.292 0c-0.036-0.001-0.079-0.001-0.122-0.001-1.307 0-2.55 0.273-3.675 0.764l0.059-0.023c-1.149 0.514-2.127 1.213-2.94 2.069l-0.004 0.004c-0.816 0.867-1.471 1.896-1.911 3.032l-0.022 0.064c-0.429 1.124-0.678 2.423-0.678 3.781 0 0.038 0 0.076 0.001 0.114l-0-0.006c-0.001 0.042-0.001 0.091-0.001 0.14 0 1.383 0.245 2.708 0.694 3.935l-0.025-0.080c0.443 1.209 1.091 2.247 1.91 3.122l-0.005-0.005c0.82 0.862 1.811 1.553 2.919 2.020l0.057 0.021c1.104 0.462 2.387 0.73 3.732 0.73 0.047 0 0.094-0 0.14-0.001l-0.007 0c0.036 0 0.078 0.001 0.121 0.001 1.611 0 3.143-0.343 4.524-0.961l-0.070 0.028c1.432-0.677 2.602-1.709 3.427-2.984l0.019-0.032-1.668-1.412c-0.651 1.027-1.548 1.846-2.61 2.386l-0.038 0.017c-1.056 0.566-2.31 0.9-3.641 0.906h-0.002c-1.234 0.050-2.46-0.235-3.547-0.826-0.873-0.516-1.603-1.179-2.178-1.962l-0.014-0.020c-0.496-0.672-0.884-1.459-1.116-2.31l-0.012-0.050c-0.173-0.593-0.284-1.278-0.307-1.985l-0-0.013v-0.074h15.715v-1.657c-0.009-1.15-0.221-2.247-0.604-3.262l0.021 0.065c-0.394-1.087-0.96-2.022-1.675-2.822l0.007 0.008c-0.747-0.822-1.648-1.49-2.659-1.961l-0.051-0.021c-1.057-0.472-2.29-0.748-3.587-0.748-0.063 0-0.125 0.001-0.188 0.002l0.009-0v0.005zM36.498 8.323h-13.449v-0.075c0.048-0.476 0.158-0.944 0.328-1.39 0.278-0.796 0.653-1.486 1.121-2.102l-0.014 0.019c0.578-0.762 1.282-1.394 2.085-1.878l0.033-0.019c0.897-0.522 1.973-0.83 3.122-0.83 0.079 0 0.157 0.001 0.236 0.004l-0.011-0c0.878-0.005 1.749 0.163 2.563 0.496 0.821 0.325 1.524 0.779 2.121 1.345l-0.003-0.003c0.552 0.549 1.003 1.199 1.323 1.92l0.016 0.040c0.348 0.751 0.529 1.569 0.529 2.397v0.075zM30.059 0c-1.285-0.017-2.56 0.235-3.743 0.741-1.145 0.513-2.119 1.21-2.93 2.064l-0.004 0.004c-0.817 0.866-1.473 1.895-1.911 3.032l-0.022 0.064c-0.433 1.122-0.684 2.42-0.684 3.777 0 0.041 0 0.083 0.001 0.124l-0-0.006c-0 0.040-0.001 0.087-0.001 0.134 0 1.384 0.243 2.712 0.688 3.942l-0.026-0.081c0.447 1.209 1.096 2.246 1.916 3.122l-0.005-0.005c0.819 0.862 1.81 1.553 2.918 2.020l0.057 0.021c1.103 0.462 2.385 0.73 3.729 0.73 0.048 0 0.096-0 0.144-0.001l-0.007 0c0.036 0 0.078 0.001 0.121 0.001 1.611 0 3.143-0.343 4.524-0.961l-0.070 0.028c1.429-0.678 2.595-1.709 3.417-2.984l0.019-0.032-1.668-1.412c-0.656 1.032-1.562 1.851-2.636 2.386l-0.038 0.017c-1.056 0.566-2.31 0.9-3.641 0.906h-0.002c-1.235 0.050-2.461-0.235-3.548-0.826-0.872-0.516-1.602-1.179-2.178-1.962l-0.014-0.020c-0.493-0.672-0.875-1.46-1.101-2.311l-0.011-0.049c-0.173-0.593-0.284-1.278-0.307-1.985l-0-0.013v-0.074h15.736v-1.657c-0.004-1.148-0.21-2.246-0.583-3.263l0.021 0.066c-0.393-1.087-0.96-2.022-1.675-2.822l0.007 0.008c-0.747-0.821-1.646-1.488-2.654-1.96l-0.051-0.022c-1.059-0.472-2.294-0.747-3.594-0.747-0.060 0-0.12 0.001-0.18 0.002l0.009-0-0.025 0.005zM59.499 17.631c-1.069 0.014-2.129-0.197-3.113-0.618-0.896-0.392-1.705-0.96-2.377-1.673-0.641-0.69-1.149-1.513-1.478-2.422l-0.016-0.050c-0.325-0.902-0.513-1.942-0.513-3.026s0.188-2.125 0.533-3.090l-0.020 0.064c0.346-0.96 0.854-1.785 1.498-2.483l-0.004 0.005c0.658-0.695 1.448-1.257 2.331-1.65l0.046-0.018c0.92-0.391 1.99-0.618 3.113-0.618s2.193 0.227 3.167 0.638l-0.054-0.020c0.929 0.402 1.719 0.964 2.368 1.658l0.004 0.004c0.648 0.692 1.16 1.519 1.489 2.434l0.015 0.049c0.684 1.959 0.684 4.093 0 6.053-0.347 0.959-0.857 1.782-1.503 2.476l0.004-0.004c-0.658 0.698-1.448 1.262-2.331 1.655l-0.046 0.018c-0.983 0.422-2.044 0.633-3.113 0.618zM59.499 0c-0.019-0-0.042-0-0.065-0-1.395 0-2.727 0.272-3.944 0.766l0.070-0.025c-1.21 0.48-2.242 1.173-3.096 2.040l-0.001 0.001c-0.845 0.87-1.526 1.906-1.989 3.053l-0.023 0.064c-0.453 1.133-0.716 2.446-0.716 3.82 0 0.043 0 0.086 0.001 0.129l-0-0.007c-0 0.032-0.001 0.070-0.001 0.108 0 1.384 0.267 2.705 0.751 3.916l-0.025-0.071c0.486 1.211 1.167 2.246 2.014 3.119l-0.002-0.002c0.855 0.864 1.883 1.555 3.026 2.019l0.061 0.022c1.14 0.462 2.462 0.73 3.847 0.73 0.034 0 0.069-0 0.103-0l-0.005 0c0.032 0 0.071 0.001 0.109 0.001 1.376 0 2.689-0.268 3.89-0.755l-0.069 0.025c1.208-0.486 2.239-1.178 3.098-2.042l0-0c0.86-0.865 1.549-1.901 2.011-3.053l0.022-0.062c0.459-1.174 0.725-2.533 0.725-3.954s-0.266-2.78-0.751-4.030l0.026 0.076c-0.489-1.213-1.177-2.249-2.034-3.118l0.001 0.001c-0.862-0.857-1.894-1.545-3.041-2.008l-0.062-0.022c-1.132-0.462-2.446-0.731-3.822-0.731-0.037 0-0.075 0-0.112 0.001l0.006-0v-0.010zM41.513 19.192h2.282v-10.209c-0.007-0.885 0.116-1.767 0.365-2.616 0.248-0.82 0.636-1.531 1.141-2.141l-0.008 0.010c0.517-0.611 1.164-1.096 1.9-1.415l0.033-0.013c0.852-0.361 1.77-0.542 2.695-0.533v-2.132c-2.648 0.054-4.739 0.874-6.184 2.429-2.377 2.552-2.224 6.261-2.224 6.298v10.32z"></path>
</symbol>
<symbol id="icon-footerlogo" viewBox="0 0 71 32">
<path d="M26.099 30.311c-1.543 1.057-3.451 1.689-5.506 1.689-0.012 0-0.024-0-0.036-0h0.002c-0.016 0-0.036 0-0.055 0-2.584 0-4.939-0.977-6.717-2.581l0.009 0.008c-0.144-0.128 0-0.299 0.149-0.203 1.928 1.126 4.245 1.791 6.717 1.791 1.884 0 3.678-0.386 5.306-1.084l-0.088 0.033c0.256-0.107 0.464 0.165 0.219 0.346z"></path>
<path d="M26.724 29.602c-0.192-0.245-1.267-0.117-1.753-0.058-0.144 0-0.166-0.107-0.038-0.203 0.862-0.596 2.267-0.427 2.428-0.224s-0.043 1.598-0.845 2.275c-0.123 0.101-0.24 0.048-0.187-0.085 0.181-0.453 0.583-1.46 0.395-1.705zM25.008 25.106v-0.587c-0-0.001-0-0.003-0-0.004 0-0.080 0.065-0.144 0.144-0.144 0.002 0 0.004 0 0.006 0h2.609c0.002-0 0.003-0 0.005-0 0.060 0 0.112 0.037 0.134 0.089l0 0.001c0.006 0.016 0.010 0.034 0.010 0.053 0 0.002-0 0.004-0 0.006v-0 0.5c0 0.086-0.069 0.192-0.197 0.368l-1.359 1.934c0.050-0.003 0.109-0.005 0.168-0.005 0.486 0 0.944 0.12 1.346 0.332l-0.016-0.008c0.081 0.044 0.135 0.127 0.139 0.223l0 0.001v0.624c0 0.085-0.097 0.186-0.194 0.133-0.402-0.212-0.879-0.336-1.385-0.336s-0.982 0.124-1.401 0.344l0.017-0.008c-0.090 0.048-0.187-0.048-0.187-0.133v-0.575c-0.001-0.014-0.002-0.030-0.002-0.046 0-0.131 0.036-0.253 0.099-0.357l-0.002 0.003 1.583-2.265h-1.369c-0.002 0-0.004 0-0.006 0-0.079 0-0.144-0.064-0.144-0.144v-0zM30.194 25.132c-0.587 0-0.625 0.799-0.625 1.295s0 1.561 0.62 1.561 0.647-0.858 0.647-1.38c0.001-0.035 0.002-0.077 0.002-0.118 0-0.337-0.046-0.663-0.131-0.973l0.006 0.026c-0.048-0.228-0.247-0.396-0.486-0.396-0.017 0-0.034 0.001-0.051 0.003l0.002-0 0.016-0.016zM30.194 24.295c1.182 0 1.824 1.017 1.824 2.302s-0.706 2.232-1.824 2.232c-1.118 0-1.797-1.012-1.797-2.274s0.642-2.259 1.797-2.259zM23.719 28.734c-0.027 0.017-0.059 0.027-0.094 0.027s-0.067-0.010-0.094-0.027l0.001 0c-0.18-0.151-0.333-0.327-0.454-0.524l-0.005-0.009c-0.289 0.357-0.728 0.584-1.22 0.584-0.034 0-0.067-0.001-0.101-0.003l0.005 0c-0.019 0.001-0.042 0.002-0.064 0.002-0.322 0-0.612-0.133-0.819-0.348l-0-0c-0.194-0.203-0.314-0.478-0.314-0.781 0-0.040 0.002-0.079 0.006-0.118l-0 0.005c-0-0.013-0.001-0.028-0.001-0.043 0-0.567 0.348-1.052 0.842-1.254l0.009-0.003c0.445-0.152 0.958-0.25 1.491-0.272l0.011-0c0.005-0.044 0.008-0.095 0.008-0.147 0-0.192-0.038-0.376-0.107-0.544l0.003 0.009c-0.106-0.128-0.264-0.208-0.442-0.208-0.003 0-0.005 0-0.008 0h0c-0.013-0.001-0.028-0.002-0.043-0.002-0.289 0-0.531 0.199-0.598 0.467l-0.001 0.004c0 0.090-0.080 0.159-0.15 0.154l-0.765-0.059c-0.059-0.010-0.105-0.055-0.117-0.111l-0-0.001c-0.002-0.009-0.003-0.019-0.003-0.029s0.001-0.020 0.003-0.030l-0 0.001c0.176-0.933 1.026-1.214 1.785-1.214 0.436-0.016 0.862 0.123 1.204 0.394 0.385 0.362 0.347 0.847 0.347 1.369v1.241c0.002 0.276 0.112 0.539 0.305 0.736 0.026 0.027 0.042 0.063 0.042 0.104s-0.016 0.077-0.042 0.104l0-0-0.615 0.533-0.005-0.006zM22.917 26.795c0.029 0.29-0.023 0.583-0.149 0.847-0.101 0.203-0.3 0.344-0.533 0.363l-0.002 0c-0.31 0-0.487-0.235-0.487-0.581 0-0.676 0.61-0.799 1.187-0.799v0.171h-0.016zM13.26 28.734c-0.027 0.017-0.059 0.027-0.094 0.027s-0.067-0.010-0.094-0.027l0.001 0c-0.18-0.151-0.333-0.327-0.454-0.524l-0.005-0.009c-0.296 0.357-0.74 0.583-1.237 0.583-0.028 0-0.055-0.001-0.082-0.002l0.004 0c-0.013 0.001-0.029 0.001-0.045 0.001-0.489 0-0.907-0.309-1.067-0.743l-0.003-0.008c-0.042-0.113-0.066-0.244-0.066-0.38 0-0.032 0.001-0.063 0.004-0.094l-0 0.004c-0.001-0.014-0.001-0.030-0.001-0.046 0-0.566 0.348-1.050 0.842-1.251l0.009-0.003c0.445-0.152 0.958-0.249 1.492-0.271l0.011-0c0.005-0.043 0.008-0.094 0.008-0.145 0-0.194-0.040-0.379-0.112-0.547l0.003 0.009c-0.099-0.127-0.251-0.208-0.423-0.208-0.007 0-0.015 0-0.022 0l0.001-0c-0.014-0.001-0.030-0.002-0.047-0.002-0.288 0-0.529 0.199-0.594 0.467l-0.001 0.004c0 0.090-0.080 0.159-0.15 0.154l-0.765-0.080c-0.059-0.010-0.104-0.055-0.117-0.111l-0-0.001c-0.002-0.009-0.003-0.019-0.003-0.029s0.001-0.020 0.003-0.030l-0 0.001c0.176-0.933 1.026-1.214 1.785-1.214 0.435-0.017 0.86 0.123 1.198 0.394 0.391 0.362 0.353 0.847 0.353 1.369v1.241c-0.002 0.271 0.094 0.532 0.273 0.736 0.027 0.026 0.044 0.063 0.044 0.104s-0.017 0.078-0.044 0.104l-0 0-0.615 0.533 0.011-0.006zM12.459 26.795c0.029 0.29-0.023 0.583-0.15 0.847-0.102 0.202-0.3 0.343-0.532 0.363l-0.002 0c-0.305 0-0.482-0.235-0.482-0.581 0-0.676 0.61-0.799 1.187-0.799v0.171h-0.021zM15.592 26.438c0-0.474 0-1.124 0.534-1.124s0.487 0.666 0.487 1.124v2.163c0 0 0 0.001 0 0.001 0 0.078 0.062 0.141 0.139 0.144h0.796c0.002 0 0.005 0 0.007 0 0.081 0 0.146-0.064 0.148-0.144v-2.163c-0.016-0.263 0.008-0.528 0.074-0.784 0.078-0.192 0.26-0.327 0.475-0.336l0.001-0c0.017-0.003 0.037-0.004 0.057-0.004 0.209 0 0.382 0.153 0.413 0.354l0 0.002c0.019 0.255 0.019 0.512 0 0.767v2.163c0.003 0.079 0.066 0.142 0.144 0.144h0.797c0.002 0 0.005 0 0.007 0 0.081 0 0.146-0.064 0.148-0.144v-2.579c0.016-0.096 0.024-0.208 0.024-0.321 0-0.349-0.084-0.679-0.233-0.969l0.006 0.012c-0.208-0.273-0.533-0.447-0.899-0.447-0.007 0-0.014 0-0.022 0l0.001-0c-0.010-0-0.021-0-0.033-0-0.492 0-0.912 0.312-1.072 0.749l-0.003 0.008c-0.137-0.442-0.542-0.757-1.021-0.757-0.004 0-0.008 0-0.011 0h0.001c-0.013-0.001-0.029-0.001-0.044-0.001-0.48 0-0.886 0.315-1.023 0.75l-0.002 0.008v-0.533c-0.003-0.080-0.069-0.144-0.149-0.144-0 0-0.001 0-0.001 0h-0.689c-0.002-0-0.004-0-0.006-0-0.079 0-0.144 0.064-0.144 0.144v4.066c-0 0.002-0 0.003-0 0.005 0 0.080 0.065 0.144 0.144 0.144 0.002 0 0.004-0 0.006-0h0.818c0 0 0.001 0 0.001 0 0.079 0 0.144-0.064 0.144-0.144 0-0.002-0-0.004-0-0.006v0-2.132l-0.021-0.016zM33.702 28.596c0 0.002 0 0.003 0 0.005 0 0.080-0.065 0.144-0.144 0.144-0.002 0-0.004-0-0.005-0h-0.796c0 0 0 0 0 0-0.083 0-0.15-0.067-0.15-0.149v-4.066c0.003-0.080 0.069-0.144 0.149-0.144 0 0 0.001 0 0.001 0h0.738c0.002-0 0.005-0 0.008-0 0.068 0 0.126 0.047 0.141 0.111l0 0.001v0.624c0.113-0.477 0.535-0.826 1.038-0.826 0.011 0 0.022 0 0.032 0l-0.002-0c0.010-0 0.022-0.001 0.033-0.001 0.374 0 0.703 0.191 0.895 0.481l0.002 0.004c0.138 0.306 0.219 0.663 0.219 1.039 0 0.081-0.004 0.161-0.011 0.24l0.001-0.010v2.568c-0.008 0.072-0.069 0.128-0.143 0.128-0.003 0-0.005-0-0.008-0h-0.769c-0.072-0.002-0.131-0.057-0.139-0.127l-0-0.001v-2.467c0-0.825-0.32-0.847-0.502-0.847-0.206 0.012-0.379 0.139-0.458 0.317l-0.001 0.003c-0.098 0.246-0.143 0.512-0.129 0.777v2.196zM2.636 28.734l-0.065-0.416c-0.18 0.157-0.391 0.284-0.622 0.373l-0.014 0.005c-0.204 0.085-0.44 0.136-0.688 0.139h-0.001c-0.020 0.001-0.043 0.002-0.067 0.002-0.325 0-0.621-0.124-0.843-0.328l0.001 0.001c-0.212-0.204-0.344-0.49-0.344-0.808 0-0.020 0.001-0.039 0.001-0.058l-0 0.003c-0.001-0.013-0.001-0.029-0.001-0.044 0-0.357 0.162-0.676 0.417-0.887l0.002-0.002c0.32-0.243 0.716-0.366 1.118-0.346 0.341 0.005 0.681 0.052 1.010 0.14v-0.533c0.003-0.026 0.005-0.056 0.005-0.086 0-0.201-0.077-0.384-0.202-0.522l0.001 0.001c-0.159-0.113-0.357-0.181-0.571-0.181-0.034 0-0.068 0.002-0.102 0.005l0.004-0c-0.506 0.006-0.988 0.098-1.437 0.26l0.030-0.010v-0.554c0.222-0.112 0.46-0.191 0.706-0.235 0.276-0.057 0.558-0.086 0.839-0.085 0.399-0.033 0.796 0.079 1.118 0.315 0.226 0.22 0.367 0.527 0.367 0.868 0 0.032-0.001 0.064-0.004 0.095l0-0.004v2.893h-0.657zM1.433 28.238c0.422-0.016 0.806-0.168 1.111-0.413l-0.004 0.003v-0.81c-0.255-0.067-0.548-0.106-0.85-0.107h-0c-0.599 0-0.903 0.235-0.903 0.693-0.001 0.012-0.001 0.026-0.001 0.040 0 0.166 0.066 0.318 0.172 0.429l-0-0c0.116 0.103 0.269 0.166 0.437 0.166 0.016 0 0.031-0.001 0.047-0.002l-0.002 0h-0.006zM7.224 28.734v-2.706c0.018-0.222-0.044-0.443-0.176-0.624-0.121-0.123-0.29-0.2-0.476-0.2-0.021 0-0.041 0.001-0.061 0.003l0.003-0c-0.445 0.007-0.878 0.148-1.241 0.404v3.122h-0.796v-4.049h0.662l0.080 0.448c0.437-0.347 0.995-0.558 1.603-0.565h0.002c0.026-0.002 0.056-0.003 0.086-0.003 0.31 0 0.592 0.119 0.803 0.313l-0.001-0.001c0.192 0.212 0.309 0.495 0.309 0.805 0 0.035-0.002 0.071-0.005 0.105l0-0.005v2.973l-0.791-0.021zM41.033 28.579c-0.332 0.164-0.699 0.246-1.070 0.24-0.037 0.003-0.080 0.004-0.123 0.004-0.514 0-0.98-0.205-1.322-0.538l0 0c-0.318-0.433-0.508-0.976-0.508-1.563s0.191-1.131 0.513-1.57l-0.005 0.007c0.342-0.333 0.81-0.538 1.326-0.538 0.047 0 0.094 0.002 0.14 0.005l-0.006-0c0.35-0.002 0.695 0.074 1.010 0.224v0.564c-0.263-0.095-0.566-0.154-0.882-0.165l-0.005-0c-0.035-0.003-0.075-0.005-0.116-0.005-0.332 0-0.632 0.132-0.853 0.346l0-0c-0.222 0.309-0.327 0.687-0.294 1.066v0.101c-0.031 0.38 0.075 0.757 0.3 1.066 0.216 0.214 0.513 0.346 0.841 0.346 0.037 0 0.074-0.002 0.11-0.005l-0.005 0c0.322-0.006 0.641-0.060 0.947-0.16v0.575zM43.524 28.851c-0.031 0.002-0.067 0.003-0.103 0.003-0.521 0-0.991-0.218-1.324-0.567l-0.001-0.001c-0.324-0.435-0.518-0.983-0.518-1.577s0.195-1.142 0.523-1.584l-0.005 0.007c0.371-0.35 0.873-0.565 1.425-0.565s1.054 0.215 1.426 0.566l-0.001-0.001c0.324 0.435 0.518 0.983 0.518 1.577s-0.195 1.142-0.523 1.584l0.005-0.007c-0.331 0.35-0.799 0.568-1.317 0.568-0.037 0-0.074-0.001-0.11-0.003l0.005 0zM43.524 28.212c0.749 0 1.128-0.5 1.128-1.508s-0.379-1.497-1.128-1.497c-0.748 0-1.128 0.496-1.128 1.497s0.374 1.508 1.128 1.508zM51.625 28.734v-2.749c0.002-0.022 0.003-0.048 0.003-0.074 0-0.191-0.057-0.368-0.154-0.516l0.002 0.004c-0.106-0.119-0.26-0.193-0.431-0.193-0.018 0-0.035 0.001-0.053 0.002l0.002-0c-0.418 0.007-0.825 0.131-1.177 0.357 0.003 0.041 0.003 0.082 0 0.123v3.047h-0.791v-2.749c0.001-0.020 0.002-0.042 0.002-0.065 0-0.193-0.056-0.374-0.154-0.525l0.002 0.004c-0.106-0.119-0.26-0.193-0.431-0.193-0.018 0-0.035 0.001-0.053 0.002l0.002-0c-0.436 0.003-0.84 0.134-1.179 0.356l0.008-0.005v3.197h-0.792v-4.049h0.663l0.080 0.41c0.414-0.313 0.93-0.509 1.492-0.533l0.005-0c0.034-0.004 0.074-0.006 0.114-0.006 0.392 0 0.732 0.224 0.899 0.551l0.003 0.006c0.438-0.344 0.996-0.555 1.602-0.565l0.002-0c0.023-0.002 0.049-0.003 0.076-0.003 0.301 0 0.574 0.119 0.774 0.312l-0-0c0.208 0.254 0.305 0.58 0.273 0.906v2.973l-0.792-0.021zM53.588 30.375v-5.69h0.663l0.075 0.416c0.354-0.33 0.83-0.532 1.353-0.533h0c0.024-0.001 0.053-0.002 0.082-0.002 0.458 0 0.868 0.207 1.14 0.533l0.002 0.002c0.32 0.443 0.479 0.983 0.449 1.529 0.003 0.044 0.004 0.095 0.004 0.146 0 0.547-0.18 1.053-0.485 1.46l0.005-0.006c-0.281 0.361-0.716 0.592-1.205 0.592-0.018 0-0.036-0-0.054-0.001l0.003 0c-0.011 0-0.024 0-0.037 0-0.465 0-0.888-0.178-1.205-0.47l0.001 0.001v2.024h-0.791zM55.454 25.207c-0.404 0.005-0.776 0.142-1.073 0.371l0.004-0.003v2.221c0.304 0.242 0.68 0.377 1.069 0.384 0.738 0 1.101-0.496 1.101-1.481 0.004-0.045 0.006-0.097 0.006-0.15 0-0.36-0.101-0.696-0.277-0.982l0.005 0.008c-0.174-0.227-0.445-0.371-0.749-0.371-0.030 0-0.059 0.001-0.089 0.004l0.004-0zM60.715 28.734l-0.064-0.415c-0.18 0.157-0.391 0.284-0.622 0.373l-0.014 0.005c-0.222 0.090-0.457 0.136-0.695 0.14-0.019 0.001-0.041 0.002-0.062 0.002-0.326 0-0.624-0.124-0.848-0.327l0.001 0.001c-0.209-0.206-0.338-0.492-0.338-0.808 0-0.019 0.001-0.039 0.001-0.058l-0 0.003c-0.001-0.015-0.001-0.033-0.001-0.050 0-0.354 0.159-0.67 0.41-0.881l0.002-0.001c0.284-0.218 0.645-0.349 1.036-0.349 0.031 0 0.062 0.001 0.092 0.002l-0.004-0c0.34 0.005 0.68 0.052 1.010 0.14v-0.533c0.002-0.023 0.004-0.050 0.004-0.078 0-0.204-0.076-0.39-0.202-0.53l0.001 0.001c-0.159-0.113-0.357-0.181-0.571-0.181-0.034 0-0.068 0.002-0.102 0.005l0.004-0c-0.507 0.006-0.992 0.097-1.442 0.26l0.031-0.010v-0.554c0.222-0.112 0.459-0.191 0.706-0.235 0.276-0.057 0.558-0.085 0.839-0.085 0.4-0.031 0.798 0.080 1.123 0.315 0.223 0.219 0.362 0.525 0.362 0.862 0 0.034-0.001 0.067-0.004 0.101l0-0.004v2.893h-0.652zM59.512 28.238c0.422-0.016 0.806-0.168 1.111-0.413l-0.004 0.003v-0.81c-0.255-0.067-0.548-0.106-0.85-0.107h-0c-0.605 0-0.903 0.235-0.903 0.693-0.001 0.013-0.002 0.029-0.002 0.045 0 0.164 0.064 0.313 0.168 0.424l-0-0c0.118 0.103 0.273 0.166 0.443 0.166 0.013 0 0.026-0 0.039-0.001l-0.002 0zM65.292 28.734v-2.706c0.016-0.222-0.043-0.441-0.171-0.624-0.121-0.123-0.29-0.2-0.476-0.2-0.021 0-0.041 0.001-0.061 0.003l0.003-0c-0.445 0.007-0.878 0.148-1.24 0.404v3.122h-0.792v-4.049h0.663l0.080 0.448c0.437-0.347 0.995-0.559 1.603-0.565h0.001c0.026-0.002 0.056-0.003 0.086-0.003 0.311 0 0.595 0.119 0.807 0.313l-0.001-0.001c0.213 0.244 0.32 0.562 0.299 0.884v2.973h-0.802zM70.543 24.684l-1.85 4.758c-0.098 0.301-0.271 0.573-0.502 0.788-0.19 0.15-0.433 0.241-0.697 0.241-0.016 0-0.032-0-0.049-0.001l0.002 0c-0.004 0-0.008 0-0.012 0-0.219 0-0.427-0.041-0.62-0.116l0.012 0.004v-0.564c0.148 0.037 0.301 0.055 0.455 0.053 0.012 0.001 0.026 0.001 0.039 0.001 0.163 0 0.314-0.057 0.432-0.152l-0.001 0.001c0.144-0.15 0.249-0.333 0.305-0.533l0.155-0.404-1.636-4.086h0.85l1.171 3.313 1.128-3.314h0.818v0.011zM15.891 8.322h-13.585v-0.075c0.048-0.476 0.159-0.944 0.332-1.391 0.597-1.698 1.738-3.079 3.211-3.966l0.034-0.019c0.909-0.522 1.999-0.83 3.161-0.83 0.077 0 0.153 0.001 0.23 0.004l-0.011-0c0.010-0 0.022-0 0.035-0 0.922 0 1.801 0.182 2.604 0.512l-0.046-0.017c0.818 0.329 1.519 0.783 2.115 1.346l-0.003-0.003c0.576 0.547 1.049 1.197 1.39 1.922l0.017 0.039c0.338 0.699 0.535 1.519 0.535 2.386 0 0.004 0 0.008 0 0.011v-0.001l-0.016 0.080zM9.384 0c-1.296-0.017-2.582 0.235-3.775 0.74-1.159 0.513-2.147 1.212-2.97 2.069l-0.003 0.003c-0.823 0.866-1.485 1.895-1.93 3.032l-0.022 0.064c-0.434 1.124-0.685 2.424-0.685 3.783 0 0.037 0 0.075 0.001 0.112l-0-0.006c-0.016 1.362 0.212 2.716 0.674 3.996 0.448 1.211 1.102 2.249 1.929 3.122l-0.004-0.004c0.829 0.863 1.829 1.553 2.947 2.018l0.058 0.021c1.24 0.5 2.567 0.748 3.904 0.73 1.588 0.016 3.162-0.3 4.62-0.932 1.444-0.675 2.625-1.707 3.461-2.985l0.019-0.031-1.684-1.411c-0.66 1.029-1.565 1.847-2.636 2.385l-0.038 0.017c-1.068 0.566-2.333 0.901-3.677 0.906h-0.002c-0.083 0.004-0.181 0.006-0.28 0.006-1.21 0-2.347-0.308-3.339-0.85l0.036 0.018c-0.881-0.515-1.618-1.178-2.201-1.962l-0.014-0.019c-0.501-0.672-0.892-1.459-1.127-2.311l-0.012-0.050c-0.175-0.593-0.287-1.278-0.31-1.985l-0-0.013v-0.074h15.87v-1.657c-0.009-1.15-0.224-2.248-0.61-3.261l0.021 0.064c-0.398-1.088-0.97-2.023-1.69-2.821l0.007 0.007c-0.756-0.823-1.665-1.491-2.685-1.961l-0.052-0.022c-1.067-0.473-2.312-0.748-3.621-0.748-0.063 0-0.126 0.001-0.189 0.002l0.009-0v0.006zM36.857 8.322h-13.581v-0.075c0.048-0.476 0.159-0.944 0.331-1.391 0.281-0.796 0.659-1.486 1.131-2.101l-0.013 0.018c0.585-0.762 1.295-1.395 2.105-1.878l0.034-0.019c0.906-0.522 1.992-0.83 3.15-0.83 0.080 0 0.16 0.001 0.24 0.004l-0.012-0c0.886-0.005 1.766 0.164 2.588 0.496 0.829 0.324 1.54 0.778 2.143 1.346l-0.003-0.003c0.557 0.549 1.012 1.199 1.336 1.921l0.016 0.040c0.352 0.751 0.534 1.569 0.535 2.398v0.074zM30.355 0c-0.037-0.001-0.081-0.001-0.125-0.001-1.32 0-2.576 0.273-3.716 0.764l0.061-0.023c-1.155 0.512-2.139 1.209-2.959 2.064l-0.003 0.003c-0.825 0.865-1.487 1.894-1.931 3.033l-0.022 0.063c-0.437 1.121-0.69 2.419-0.69 3.776 0 0.041 0 0.083 0.001 0.124l-0-0.006c-0 0.040-0.001 0.086-0.001 0.133 0 1.385 0.245 2.713 0.695 3.943l-0.026-0.080c0.452 1.21 1.107 2.248 1.934 3.122l-0.004-0.004c0.829 0.863 1.83 1.553 2.948 2.018l0.058 0.021c1.239 0.5 2.566 0.748 3.903 0.73 0.036 0 0.079 0.001 0.122 0.001 1.626 0 3.172-0.343 4.569-0.961l-0.072 0.029c1.441-0.676 2.618-1.707 3.451-2.985l0.019-0.032-1.684-1.411c-0.665 1.033-1.58 1.853-2.662 2.385l-0.039 0.017c-1.068 0.566-2.334 0.901-3.678 0.906h-0.002c-0.083 0.004-0.181 0.006-0.28 0.006-1.21 0-2.347-0.308-3.339-0.85l0.036 0.018c-0.88-0.515-1.617-1.178-2.2-1.962l-0.014-0.019c-0.497-0.671-0.883-1.459-1.111-2.312l-0.011-0.049c-0.175-0.593-0.287-1.278-0.31-1.985l-0-0.013v-0.074h15.891v-1.657c-0.004-1.148-0.211-2.246-0.587-3.262l0.021 0.066c-0.398-1.088-0.97-2.023-1.691-2.821l0.007 0.007c-0.755-0.821-1.663-1.489-2.681-1.961l-0.052-0.022c-1.070-0.472-2.317-0.747-3.629-0.747-0.061 0-0.121 0.001-0.182 0.002l0.009-0-0.026 0.006zM60.084 17.63c-0.030 0-0.066 0.001-0.102 0.001-1.099 0-2.144-0.227-3.092-0.638l0.050 0.019c-0.937-0.412-1.735-0.977-2.398-1.671l-0.003-0.003c-0.647-0.689-1.16-1.512-1.492-2.422l-0.016-0.049c-0.329-0.901-0.519-1.942-0.519-3.026s0.19-2.125 0.539-3.090l-0.020 0.063c0.35-0.961 0.862-1.786 1.512-2.482l-0.004 0.004c0.666-0.695 1.464-1.258 2.354-1.649l0.047-0.018c0.93-0.391 2.010-0.618 3.144-0.618s2.214 0.227 3.199 0.638l-0.055-0.020c0.938 0.401 1.735 0.963 2.393 1.658l0.003 0.003c0.653 0.691 1.17 1.519 1.502 2.435l0.016 0.049c0.329 0.901 0.519 1.942 0.519 3.026s-0.19 2.125-0.539 3.090l0.020-0.063c-0.351 0.96-0.865 1.783-1.517 2.476l0.004-0.004c-0.665 0.698-1.463 1.263-2.354 1.655l-0.047 0.018c-0.896 0.391-1.941 0.619-3.038 0.619-0.037 0-0.074-0-0.112-0.001l0.006 0zM60.084 0c-1.361-0.008-2.712 0.243-3.978 0.74-1.175 0.455-2.24 1.15-3.128 2.041-0.853 0.87-1.541 1.906-2.009 3.055l-0.023 0.063c-0.493 1.255-0.738 2.594-0.722 3.942-0 0.032-0.001 0.071-0.001 0.109 0 1.384 0.269 2.705 0.758 3.914l-0.025-0.070c0.491 1.212 1.179 2.248 2.034 3.119l-0.001-0.001c0.865 0.864 1.902 1.555 3.056 2.018l0.062 0.022c1.269 0.495 2.621 0.743 3.984 0.73 0.032 0 0.070 0.001 0.108 0.001 1.389 0 2.716-0.268 3.93-0.756l-0.071 0.025c1.219-0.485 2.261-1.177 3.13-2.042l-0 0c0.868-0.864 1.563-1.901 2.029-3.055l0.022-0.061c0.464-1.173 0.732-2.532 0.732-3.953s-0.269-2.78-0.758-4.028l0.026 0.075c-0.494-1.214-1.189-2.25-2.052-3.117l0 0c-0.872-0.858-1.915-1.546-3.072-2.008l-0.063-0.022c-1.144-0.462-2.47-0.731-3.859-0.731-0.038 0-0.076 0-0.114 0.001l0.006-0v-0.010zM41.92 19.192h2.306v-10.209c-0-0.020-0-0.043-0-0.067 0-0.909 0.135-1.786 0.385-2.612l-0.017 0.064c0.234-0.779 0.623-1.505 1.144-2.132 0.523-0.612 1.176-1.097 1.918-1.415l0.034-0.013c0.784-0.337 1.696-0.534 2.654-0.534 0.024 0 0.048 0 0.071 0l-0.004-0v-2.13c-2.674 0.052-4.786 0.873-6.246 2.429-2.401 2.552-2.246 6.261-2.246 6.298v10.32z"></path>
</symbol>
<symbol id="icon-twitter" viewBox="0 0 32 32">
<path d="M32 5.824c-1.175 0.535-2.443 0.897-3.77 1.059 1.364-0.852 2.386-2.145 2.873-3.675l0.013-0.048c-1.199 0.742-2.596 1.308-4.087 1.616l-0.084 0.014c-1.188-1.306-2.894-2.123-4.791-2.125h-0c-3.623 0-6.563 3.014-6.563 6.731 0 0.529 0.057 1.041 0.169 1.534-5.456-0.281-10.293-2.958-13.533-7.036-0.559 0.971-0.889 2.134-0.889 3.375 0 0.004 0 0.009 0 0.013v-0.001c-0 0.009-0 0.019-0 0.030 0 2.301 1.147 4.334 2.9 5.559l0.022 0.015c-1.1-0.037-2.12-0.344-3.007-0.856l0.031 0.017v0.082c0 3.264 2.263 5.984 5.269 6.602-0.511 0.15-1.098 0.237-1.706 0.237-0.009 0-0.017-0-0.026-0h0.001c-0.422 0-0.836-0.041-1.236-0.119 0.836 2.673 3.259 4.621 6.133 4.672-2.207 1.796-5.052 2.883-8.151 2.883-0.001 0-0.002 0-0.003 0h0c-0.53 0-1.054-0.030-1.567-0.092 2.833 1.893 6.317 3.021 10.064 3.022h0c12.077 0 18.679-10.256 18.679-19.153 0-0.292-0.006-0.586-0.017-0.873 1.283-0.949 2.397-2.133 3.274-3.484z"></path>
</symbol>
<symbol id="icon-linkedin" viewBox="0 0 32 32">
<path d="M3.766 8.311h-0.044c-2.259 0-3.723-1.511-3.723-3.426 0-1.952 1.507-3.431 3.81-3.431 2.301 0 3.716 1.475 3.761 3.426 0 1.915-1.46 3.431-3.805 3.431zM32 30.545h-7.072v-10.226c0-2.677-1.107-4.505-3.539-4.505-1.861 0-2.896 1.233-3.377 2.421-0.16 0.375-0.157 0.881-0.154 1.403v10.907h-7.006s0.091-18.115 0-19.762h7.007v3.102c0.414-1.357 2.653-3.292 6.225-3.292 4.433 0 7.916 2.843 7.916 8.963v10.989zM7.044 10.783h-6.237v19.762h6.237v-19.762z"></path>
</symbol>
<symbol id="icon-instagram" viewBox="0 0 32 32">
<path d="M16 0c-4.346 0-4.891 0.018-6.596 0.096-1.703 0.078-2.866 0.349-3.885 0.745-1.109 0.424-2.054 1.052-2.832 1.844l-0.001 0.001c-0.793 0.779-1.421 1.724-1.827 2.779l-0.018 0.054c-0.396 1.020-0.667 2.182-0.745 3.884-0.078 1.707-0.096 2.253-0.096 6.597s0.018 4.891 0.096 6.596c0.078 1.703 0.349 2.867 0.745 3.885 0.424 1.109 1.052 2.054 1.844 2.832l0.001 0.001c0.779 0.793 1.724 1.421 2.779 1.827l0.054 0.018c1.019 0.396 2.181 0.667 3.884 0.745 1.707 0.078 2.252 0.096 6.597 0.096s4.891-0.018 6.596-0.096c1.703-0.078 2.867-0.349 3.885-0.743 1.109-0.424 2.054-1.052 2.832-1.844l0.001-0.001c0.793-0.78 1.421-1.725 1.827-2.78l0.018-0.054c0.396-1.018 0.667-2.181 0.745-3.885 0.078-1.707 0.096-2.251 0.096-6.596s-0.018-4.891-0.096-6.596c-0.078-1.703-0.349-2.866-0.743-3.885-0.424-1.109-1.052-2.054-1.844-2.832l-0.001-0.001c-0.78-0.793-1.725-1.421-2.78-1.827l-0.054-0.018c-1.018-0.396-2.182-0.667-3.885-0.745-1.707-0.078-2.25-0.096-6.596-0.096zM16 2.883c4.272 0 4.779 0.016 6.465 0.093 1.561 0.071 2.407 0.332 2.972 0.551 0.747 0.29 1.28 0.637 1.839 1.197 0.56 0.56 0.907 1.092 1.197 1.839 0.22 0.564 0.48 1.411 0.551 2.972 0.077 1.686 0.093 2.193 0.093 6.465s-0.016 4.779-0.093 6.465c-0.071 1.561-0.332 2.407-0.551 2.972-0.29 0.747-0.637 1.28-1.197 1.839-0.503 0.518-1.118 0.926-1.805 1.186l-0.034 0.011c-0.564 0.22-1.411 0.48-2.972 0.551-1.686 0.077-2.192 0.093-6.465 0.093-4.272 0-4.779-0.016-6.465-0.093-1.561-0.071-2.407-0.332-2.972-0.551-0.747-0.29-1.28-0.637-1.839-1.197-0.518-0.504-0.926-1.118-1.186-1.805l-0.011-0.034c-0.22-0.564-0.48-1.411-0.551-2.972-0.077-1.686-0.093-2.193-0.093-6.465s0.016-4.779 0.093-6.465c0.071-1.561 0.332-2.407 0.551-2.972 0.29-0.747 0.637-1.28 1.197-1.839 0.504-0.518 1.118-0.926 1.805-1.186l0.034-0.011c0.564-0.22 1.411-0.48 2.972-0.551 1.686-0.077 2.193-0.093 6.465-0.093zM7.783 16c0-4.538 3.679-8.217 8.217-8.217s8.217 3.679 8.217 8.217v0c0 4.538-3.679 8.217-8.217 8.217s-8.217-3.679-8.217-8.217v0zM16 21.333c-2.946 0-5.333-2.388-5.333-5.333s2.388-5.333 5.333-5.333v0c2.946 0 5.333 2.388 5.333 5.333s-2.388 5.333-5.333 5.333v0zM24.541 9.379c1.060 0 1.92-0.86 1.92-1.92s-0.86-1.92-1.92-1.92v0c-1.060 0-1.92 0.86-1.92 1.92s0.86 1.92 1.92 1.92v0z"></path>
</symbol>
<symbol id="icon-facebook" viewBox="0 0 32 32">
<path d="M17.092 32h-15.326c-0.976 0-1.766-0.791-1.766-1.766v0-28.467c0-0.977 0.79-1.766 1.766-1.766h28.467c0.977 0 1.766 0.79 1.766 1.766v28.467c0 0.977-0.79 1.766-1.766 1.766h-8.154v-12.393h4.16l0.622-4.829h-4.782v-3.083c0-1.399 0.388-2.352 2.393-2.352l2.558-0.001v-4.32c-0.443-0.059-1.961-0.19-3.727-0.19-3.687 0-6.211 2.251-6.211 6.384v3.562h-4.171v4.829h4.171v12.393z"></path>
</symbol>
<symbol id="icon-experts-cup" viewBox="0 0 32 32">
<path stroke-linejoin="round" stroke-linecap="round" stroke-miterlimit="4" stroke-width="1.1111" d="M4.036 3.68h-1.781c-0.955 0-1.729 0.886-1.729 1.98v0.004c0 3.949 1.688 7.591 4.31 9.968M27.895 3.68h1.78c0.954 0 1.728 0.886 1.728 1.98v0.004c0 3.949-1.688 7.591-4.31 9.968"></path>
<path stroke-linejoin="round" stroke-linecap="round" stroke-miterlimit="4" stroke-width="1.1111" d="M8.26 30.185h15.412M15.964 21.297v8.889"></path>
</symbol>
<symbol id="icon-experts-truck" viewBox="0 0 32 32">
<path stroke-linejoin="round" stroke-linecap="round" stroke-miterlimit="4" stroke-width="1.1111" d="M1.228 22.308v-21.538h22.274c0.625 0 1.175 0.588 1.351 1.445l1.796 10.794 3.327 1.733c0.447 0.355 0.725 1.028 0.725 1.76v5.805M15.964 22.308v-17.436M27.595 26.409h3.809M11.352 26.409h9.227M0.526 26.409h3.808"></path>
<path stroke-linejoin="round" stroke-linecap="round" stroke-miterlimit="4" stroke-width="1.1111" d="M11.353 26.41c0 2.832-1.571 5.128-3.508 5.128s-3.509-2.296-3.509-5.128 1.572-5.128 3.509-5.128c1.938 0 3.508 2.296 3.508 5.128z"></path>
<path d="M9.16 26.41c0 1.062-0.589 1.924-1.316 1.924s-1.316-0.862-1.316-1.924c0-1.061 0.589-1.923 1.316-1.923s1.316 0.862 1.316 1.923z"></path>
<path stroke-linejoin="round" stroke-linecap="round" stroke-miterlimit="4" stroke-width="1.1111" d="M27.595 26.41c0 2.832-1.572 5.128-3.508 5.128s-3.509-2.296-3.509-5.128 1.572-5.128 3.509-5.128c1.938 0 3.508 2.296 3.508 5.128z"></path>
<path d="M25.402 26.41c0 1.062-0.589 1.924-1.316 1.924s-1.316-0.862-1.316-1.924c0-1.061 0.589-1.923 1.316-1.923s1.316 0.862 1.316 1.923z"></path>
<path stroke-linejoin="round" stroke-linecap="round" stroke-miterlimit="4" stroke-width="1.1111" d="M26.651 13.008h-6.812v-8.137h5.457"></path>
</symbol>
<symbol id="icon-experts-man" viewBox="0 0 32 32">
<path stroke-linejoin="round" stroke-linecap="round" stroke-miterlimit="4" stroke-width="1.1111" d="M20.6 5.162c-0 2.56-2.076 4.635-4.636 4.635s-4.636-2.075-4.636-4.636c0-0 0-0 0-0v0c0-2.56 2.075-4.636 4.636-4.636s4.636 2.075 4.636 4.636v0z"></path>
<path stroke-linejoin="round" stroke-linecap="round" stroke-miterlimit="4" stroke-width="1.1111" d="M0.526 31.177h30.878M23.436 28.371v-5.837c0-0.852-0.692-1.544-1.544-1.544h-11.854c-0.852 0-1.543 0.692-1.543 1.544v5.836"></path>
<path stroke-linejoin="round" stroke-linecap="round" stroke-miterlimit="4" stroke-width="1.1111" d="M27.664 28.338c0.529-0.608 0.852-1.408 0.852-2.284 0-0.462-0.090-0.903-0.253-1.306l0.008 0.023-2.708-6.849c-0.93-2.306-3.149-3.904-5.742-3.905h-7.712c-2.593 0-4.813 1.598-5.728 3.863l-0.015 0.041-2.708 6.849c-0.155 0.38-0.244 0.821-0.244 1.282 0 0.876 0.323 1.676 0.856 2.289l-0.004-0.004"></path>
</symbol>
<symbol id="icon-experts-reward" viewBox="0 0 32 32">
<path stroke-linejoin="round" stroke-linecap="round" stroke-miterlimit="4" stroke-width="1.1111" d="M28.804 11.703c0 6.172-5.941 11.177-13.272 11.177-7.329 0-13.271-5.004-13.271-11.177s5.942-11.177 13.271-11.177c7.331 0 13.272 5.004 13.272 11.177z"></path>
<path stroke-linejoin="round" stroke-linecap="round" stroke-miterlimit="4" stroke-width="1.1111" d="M12.199 25.807l-3.381 5.597-2.027-5.157-6.165 1.694 3.38-5.595M18.866 25.807l3.382 5.597 2.027-5.157 6.166 1.694-3.381-5.595"></path>
</symbol>
<symbol id="icon-dontworry-secure" viewBox="0 0 32 32">
<path stroke-linejoin="round" stroke-linecap="round" stroke-miterlimit="4" stroke-width="0.8101" d="M12.479 15.473l2.328 2.322 4.815-4.803"></path>
<path stroke-linejoin="round" stroke-linecap="round" stroke-miterlimit="4" stroke-width="0.8101" d="M16.541 26.712c1.902-1.050 8.687-5.634 8.954-17.72 0.009-0.437-0.265-0.844-0.679-0.988-2.573-0.887-5.566-1.399-8.767-1.399h0.003c-3.2 0-6.193 0.513-8.767 1.399-0.415 0.143-0.689 0.55-0.679 0.988 0.267 12.086 7.052 16.67 8.953 17.719 0.142 0.080 0.311 0.128 0.491 0.128s0.35-0.047 0.496-0.13l-0.005 0.003z"></path>
<path stroke-linejoin="miter" stroke-linecap="butt" stroke-miterlimit="4" stroke-width="0.8101" d="M21.463 0.39h-10.927c-5.604 0-10.146 4.543-10.146 10.147v10.927c0 5.604 4.543 10.146 10.147 10.146h10.927c5.604 0 10.146-4.543 10.146-10.147v-10.926c0-5.604-4.543-10.146-10.147-10.146z"></path>
</symbol>
<symbol id="icon-dontworry-check" viewBox="0 0 32 32">
<path stroke-linejoin="round" stroke-linecap="round" stroke-miterlimit="4" stroke-width="0.8101" d="M23.668 19.064c0-1.86-1.506-3.369-3.363-3.369h-3.671l-0.509-6.595c-0.051-0.594-0.546-1.057-1.15-1.057-0.635 0-1.149 0.512-1.154 1.146v0l0.010 13.244-2.341-2.050c-0.435-0.383-1.009-0.616-1.637-0.616-0.594 0-1.14 0.209-1.567 0.557l0.005-0.004s4.103 5.015 7.038 6.406"></path>
<path stroke-linejoin="round" stroke-linecap="round" stroke-miterlimit="4" stroke-width="0.8101" d="M11.106 11.369v-3.597c0-0 0-0.001 0-0.001 0-1.221 0.989-2.21 2.209-2.211h3.314c1.22 0.001 2.209 0.99 2.209 2.21 0 0.001 0 0.002 0 0.003v-0 3.597"></path>
<path stroke-linejoin="miter" stroke-linecap="butt" stroke-miterlimit="4" stroke-width="0.8101" d="M21.463 0.39h-10.927c-5.604 0-10.146 4.543-10.146 10.147v10.927c0 5.604 4.543 10.146 10.147 10.146h10.927c5.604 0 10.146-4.543 10.146-10.147v-10.926c0-5.604-4.543-10.146-10.147-10.146z"></path>
</symbol>
<symbol id="icon-potencial-third" viewBox="0 0 32 32">
<path stroke-linejoin="miter" stroke-linecap="butt" stroke-miterlimit="4" stroke-width="0.6076" d="M10.537 0.39h10.927c5.604 0 10.146 4.543 10.146 10.147v10.927c0 5.603-4.543 10.146-10.147 10.146h-10.926c-5.604 0-10.147-4.544-10.147-10.147v-10.926c0-5.604 4.544-10.147 10.147-10.147z"></path>
<path stroke-linejoin="miter" stroke-linecap="butt" stroke-miterlimit="4" stroke-width="0.6076" d="M18.721 10.268c-0.782-0.47-1.725-0.749-2.734-0.749-0.003 0-0.005 0-0.008 0h0c-0.994 0-1.926 0.269-2.725 0.738M20.725 8.408c-1.311-0.97-2.959-1.553-4.744-1.553-0.004 0-0.009 0-0.013 0h0.001c-0.004 0-0.008 0-0.013 0-1.768 0-3.402 0.572-4.728 1.541l0.023-0.016"></path>
<path stroke-linejoin="miter" stroke-linecap="butt" stroke-miterlimit="4" stroke-width="0.6076" d="M18.035 24.755h-4.071c-2.115 0-3.829-1.715-3.829-3.829v-4.071c0-2.114 1.714-3.829 3.829-3.829h4.071c2.115 0 3.829 1.714 3.829 3.829v0 4.071c0 0 0 0 0 0 0 2.115-1.714 3.829-3.829 3.829-0 0-0 0-0 0h0z"></path>
<path stroke-linejoin="miter" stroke-linecap="butt" stroke-miterlimit="4" stroke-width="0.6076" d="M14.287 18.89c0-0 0-0 0-0 0-0.946 0.767-1.713 1.713-1.713s1.713 0.767 1.713 1.713v0c0 0 0 0 0 0 0 0.946-0.767 1.713-1.713 1.713s-1.713-0.767-1.713-1.713v0z"></path>
</symbol>
<symbol id="icon-potencial-second" viewBox="0 0 32 32">
<path stroke-linejoin="miter" stroke-linecap="butt" stroke-miterlimit="4" stroke-width="0.4051" d="M21.463 0.642h-10.927c-5.604 0-10.146 4.488-10.146 10.024v10.795c0 5.536 4.543 10.024 10.147 10.024h10.927c5.604 0 10.146-4.488 10.146-10.024v-10.795c0-5.536-4.543-10.024-10.147-10.024z"></path>
<path stroke-linejoin="round" stroke-linecap="round" stroke-miterlimit="4" stroke-width="0.638" d="M22.104 22.095c-3.36 3.32-8.809 3.32-12.169 0-1.556-1.53-2.521-3.658-2.521-6.011s0.964-4.481 2.519-6.010l0.001-0.001c3.36-3.321 8.809-3.321 12.169 0 1.556 1.53 2.52 3.658 2.52 6.011s-0.964 4.481-2.519 6.010l-0.001 0.001z"></path>
<path stroke-linejoin="round" stroke-linecap="round" stroke-miterlimit="4" stroke-width="0.638" d="M18.627 20.205c-0.334 0.334-0.731 0.604-1.173 0.791l-0.024 0.009c-0.422 0.18-0.913 0.285-1.429 0.285-0.507 0-0.99-0.101-1.43-0.284l0.025 0.009c-0.467-0.193-0.867-0.461-1.203-0.793l0 0c-0.335-0.331-0.606-0.725-0.793-1.164l-0.009-0.024c-0.176-0.41-0.278-0.887-0.278-1.388 0-0.51 0.106-0.996 0.297-1.435l-0.009 0.023c0.199-0.461 0.473-0.854 0.809-1.182l0.001-0.001c0.668-0.649 1.58-1.049 2.586-1.049 0.006 0 0.011 0 0.017 0h-0.001c1.012 0.002 1.928 0.409 2.596 1.067l-0-0c0.663 0.653 1.075 1.56 1.080 2.563v0.001c0 0.003 0 0.006 0 0.009 0 1.001-0.406 1.907-1.062 2.562l-0 0z"></path>
<path stroke-linejoin="round" stroke-linecap="round" stroke-miterlimit="4" stroke-width="0.638" d="M16.019 16.415v2.429"></path>
<path stroke-linejoin="round" stroke-linecap="round" stroke-miterlimit="4" stroke-width="0.638" d="M16.889 11.621c-0.222 0.216-0.526 0.348-0.861 0.348-0.002 0-0.005 0-0.007-0h0c-0.337-0.001-0.642-0.137-0.864-0.357l0 0c-0.221-0.217-0.358-0.519-0.36-0.853v-0c0-0.001 0-0.003 0-0.004 0-0.333 0.135-0.634 0.352-0.852l-0 0c0.222-0.216 0.526-0.348 0.861-0.348 0.002 0 0.004 0 0.006 0h-0c0.324 0.002 0.635 0.13 0.864 0.356 0.221 0.217 0.358 0.519 0.36 0.853v0c0 0.001 0 0.003 0 0.004 0 0.333-0.135 0.634-0.352 0.852l0-0z"></path>
</symbol>
<symbol id="icon-potencial-first" viewBox="0 0 32 32">
<path stroke-linejoin="miter" stroke-linecap="butt" stroke-miterlimit="4" stroke-width="0.4051" d="M21.463 0.642h-10.927c-5.604 0-10.146 4.488-10.146 10.024v10.795c0 5.536 4.543 10.024 10.147 10.024h10.927c5.604 0 10.146-4.488 10.146-10.024v-10.795c0-5.536-4.543-10.024-10.147-10.024z"></path>
<path stroke-linejoin="round" stroke-linecap="round" stroke-miterlimit="4" stroke-width="0.638" d="M12.594 21.256h6.493M13.521 22.876h4.638M17.231 24.495h-2.782M19.059 19.637c0-0.871 0.218-1.729 0.636-2.498l1.373-2.537c0.008-0.015 0.017-0.029 0.024-0.044l0.008-0.017h-0.003c0.275-0.564 0.436-1.228 0.437-1.929v-0c0-2.778-2.549-5.030-5.694-5.030s-5.694 2.252-5.694 5.030c0 0.685 0.157 1.335 0.437 1.929h-0.002l0.008 0.016c0.007 0.015 0.016 0.030 0.025 0.045l1.372 2.536c0.399 0.722 0.635 1.583 0.635 2.499v0"></path>
</symbol>
<symbol id="icon-amazon-logo-center" viewBox="0 0 105 32">
<path d="M64.653 24.561c-6.055 4.469-14.832 6.845-22.392 6.845-10.595 0-20.135-3.917-27.353-10.434-0.567-0.513-0.061-1.212 0.62-0.816 7.789 4.533 17.422 7.262 27.37 7.262 6.71 0 14.087-1.393 20.876-4.271 1.024-0.435 1.883 0.674 0.88 1.414z"></path>
<path d="M67.171 21.684c-0.774-0.991-5.118-0.469-7.070-0.237-0.591 0.071-0.684-0.446-0.15-0.819 3.467-2.434 9.145-1.731 9.806-0.917 0.664 0.823-0.175 6.516-3.423 9.233-0.499 0.417-0.975 0.194-0.752-0.356 0.73-1.827 2.366-5.912 1.59-6.904z"></path>
<path d="M60.239 3.432c0.001 0.353 0.273 0.594 0.612 0.594l5.54 0.002-6.361 9.128c-0.389 0.584-0.395 1.24-0.395 1.625v2.399c0 0.347 0.386 0.746 0.754 0.548 3.608-1.916 7.938-1.729 11.201-0.019 0.4 0.209 0.782-0.195 0.782-0.541v-2.525c-0.034-0.34-0.145-0.689-0.562-0.922-1.852-1.040-4.010-1.347-6.047-1.299l5.49-7.841c0.509-0.704 0.795-1.148 0.8-1.489v-2.029c0-0.35-0.273-0.596-0.611-0.596l-10.602 0.001c-0.007-0-0.013-0-0.020-0-0.322 0-0.583 0.261-0.583 0.583 0 0.006 0 0.012 0 0.017v2.366zM81.179 0.161c4.786 0 7.375 4.11 7.375 9.336 0 5.049-2.858 9.057-7.375 9.057-4.696 0-7.257-4.111-7.257-9.232 0-5.156 2.589-9.161 7.257-9.161zM81.208 3.54c-2.379 0-2.529 3.239-2.529 5.26s-0.029 6.339 2.5 6.339c2.499 0 2.618-3.483 2.618-5.608 0-1.393-0.059-3.065-0.482-4.39-0.361-1.148-1.083-1.601-2.107-1.601zM51.788 10.299v-0.698c-2.332 0-4.797 0.5-4.797 3.248 0 1.396 0.723 2.339 1.962 2.339 0.904 0 1.719-0.559 2.232-1.466 0.633-1.117 0.603-2.165 0.603-3.422zM55.040 18.163c-0.213 0.192-0.603 0.198-0.762 0.075-1.102-0.852-1.849-2.149-1.849-2.149-1.771 1.804-3.025 2.347-5.317 2.347-2.716 0-4.829-1.679-4.829-5.029 0-2.618 1.419-4.399 3.441-5.271 1.749-0.77 4.194-0.909 6.065-1.118 0 0 0.155-2.021-0.392-2.758-0.426-0.571-1.146-0.838-1.81-0.838-1.196-0.006-2.352 0.646-2.582 1.898-0.065 0.357-0.33 0.659-0.608 0.628l-3.089-0.337c-0.28-0.039-0.493-0.276-0.493-0.563 0-0.039 0.004-0.077 0.012-0.114l-0.001 0.004c0.719-3.792 4.143-4.938 7.214-4.938 1.568 0 3.62 0.419 4.858 1.607 1.568 1.466 1.418 3.42 1.418 5.551v5.025c0 1.513 0.627 2.175 1.217 2.989 0.206 0.296 0.252 0.643-0.010 0.857-0.659 0.553-2.482 2.136-2.482 2.136zM9.504 10.299v-0.698c-2.331 0-4.796 0.5-4.796 3.248 0 1.396 0.723 2.339 1.962 2.339 0.904 0 1.719-0.559 2.232-1.466 0.633-1.117 0.602-2.165 0.602-3.422zM12.756 18.163c-0.213 0.192-0.602 0.198-0.761 0.075-1.103-0.852-1.849-2.149-1.849-2.149-1.771 1.804-3.025 2.347-5.318 2.347-2.714-0.001-4.828-1.68-4.828-5.030 0-2.618 1.419-4.399 3.439-5.271 1.75-0.77 4.195-0.909 6.065-1.118 0 0 0.157-2.021-0.392-2.758-0.425-0.571-1.146-0.838-1.809-0.838-1.198-0.006-2.353 0.646-2.582 1.898-0.066 0.357-0.33 0.659-0.608 0.628l-3.088-0.337c-0.28-0.037-0.493-0.275-0.493-0.562 0-0.040 0.004-0.079 0.012-0.116l-0.001 0.004c0.718-3.791 4.142-4.937 7.214-4.937 1.568 0 3.62 0.419 4.858 1.607 1.568 1.466 1.418 3.42 1.418 5.551v5.025c0 1.513 0.627 2.175 1.216 2.989 0.207 0.296 0.253 0.643-0.010 0.857-0.659 0.553-2.481 2.136-2.481 2.136zM22.189 8.835c0-1.917-0.090-4.564 2.227-4.564 2.288 0 1.988 2.717 1.988 4.564l0.003 8.776c0 0.316 0.256 0.575 0.579 0.593h3.222c0.004 0 0.009 0 0.014 0 0.331 0 0.6-0.265 0.608-0.594v-8.776c0-0.941-0.029-2.334 0.302-3.17s1.144-1.359 1.927-1.359c0.933 0 1.656 0.314 1.897 1.428 0.15 0.662 0.090 2.405 0.090 3.101l0.002 8.776c0 0.316 0.254 0.575 0.578 0.593h3.221c0.004 0 0.010 0 0.015 0 0.331 0 0.6-0.265 0.607-0.594v-0.001l0.004-10.447c0-1.777 0.21-3.797-0.815-5.191-0.902-1.254-2.377-1.811-3.733-1.811-1.896 0-3.671 0.976-4.455 3.066-0.904-2.091-2.168-3.066-4.185-3.066-1.987 0-3.462 0.976-4.244 3.066h-0.061v-2.114c0-0 0-0.001 0-0.001 0-0.333-0.27-0.602-0.602-0.602-0 0-0.001 0-0.001 0h-3.010c0 0 0 0 0 0-0.332 0-0.601 0.269-0.601 0.601 0 0 0 0.001 0 0.001v-0 16.491c0 0.332 0.269 0.601 0.601 0.601h3.221c0 0 0 0 0 0 0.332 0 0.602-0.269 0.602-0.601v-8.768zM95.392 17.602c0 0 0 0.001 0 0.001 0 0.333-0.27 0.602-0.602 0.602h-3.221c-0.332-0.001-0.601-0.27-0.601-0.602 0-0 0-0.001 0-0.001v0-16.49c0-0.333 0.27-0.603 0.601-0.603h2.978c0.349 0 0.603 0.281 0.603 0.472v2.523h0.062c0.903-2.264 2.167-3.344 4.395-3.344 1.447 0 2.861 0.523 3.764 1.951 0.845 1.323 0.845 3.552 0.845 5.155v10.417c-0.046 0.297-0.3 0.522-0.607 0.522-0.004 0-0.009-0-0.013-0h-3.233c-0.294-0.014-0.532-0.234-0.573-0.518l-0-0.003 0.005-10.002c0-3.347-1.282-3.445-2.021-3.445-0.861 0-1.554 0.673-1.858 1.3-0.45 1.011-0.523 2.044-0.523 3.159v8.907z"></path>
</symbol>
</defs>
</svg>
